<svg width="880" height="275" xmlns="http://www.w3.org/2000/svg" xmlns:xlink="http://www.w3.org/1999/xlink" xml:space="preserve" overflow="hidden"><defs><clipPath id="clip0"><rect x="1741" y="1109" width="880" height="275"/></clipPath><clipPath id="clip1"><rect x="1741" y="1109" width="880" height="275"/></clipPath><clipPath id="clip2"><rect x="1743" y="1140" width="426" height="195"/></clipPath><clipPath id="clip3"><rect x="1743" y="1140" width="427" height="195"/></clipPath></defs><g clip-path="url(#clip0)" transform="translate(-1741 -1109)"><g clip-path="url(#clip1)"><g clip-path="url(#clip2)"><g clip-path="url(#clip3)"><g><path d="M25.0989 192.082C21.8758 192.082 18.687 191.465 15.5668 190.265 12.4123 189.065 9.66925 187.247 7.23479 184.847 4.80034 182.447 3.01735 179.67 1.81727 176.515 0.617186 173.361 2.28405e-15 170.206 2.28405e-15 166.983 2.28405e-15 163.76 0.617186 160.64 1.81727 157.588 3.01735 154.537 4.83462 151.794 7.23479 149.393 9.63496 146.993 11.4522 144.216 12.6523 141.061 13.8524 137.941 14.4696 134.752 14.4696 131.529 14.4696 128.306 13.8524 125.186 12.6523 122.134 11.4522 119.083 9.63496 116.34 7.23479 113.939 4.83462 111.539 3.01735 108.762 1.81727 105.607 0.617186 102.453 7.61349e-16 99.2984 7.61349e-16 96.0753 7.61349e-16 92.8522 0.617186 89.732 1.81727 86.6804 3.01735 83.6287 4.83462 80.8857 7.23479 78.4855 9.63496 76.0853 11.4522 73.308 12.6523 70.1535 13.8524 67.0333 14.4696 63.8445 14.4696 60.6214 14.4696 57.3983 13.8524 54.2781 12.6523 51.2264 11.4522 48.1748 9.63496 45.4318 7.23479 43.0316 4.83462 40.6314 3.01735 37.8541 1.81727 34.6996 0.617186 31.5451 7.61349e-16 28.3906 7.61349e-16 25.1675 7.61349e-16 21.9444 0.617186 18.7899 1.81727 15.6354 3.01735 12.4809 4.83462 9.73783 7.23479 7.30337 9.63496 4.9032 12.4123 3.08593 15.5668 1.88585 18.687 0.685762 21.8758 0.0685762 25.0989 0.0685762 28.322 0.0685762 31.4422 0.685762 34.4938 1.88585 37.5455 3.08593 40.2885 4.9032 42.6887 7.30337 45.0889 9.70354 47.8662 11.5551 51.0207 12.858 54.1752 14.161 57.3297 14.7782 60.5528 14.7782 63.7759 14.7782 66.8961 14.1267 69.982 12.858 73.0337 11.5894 75.7767 9.73783 78.1769 7.30337 80.5771 4.9032 83.3544 3.08593 86.5089 1.88585 89.6634 0.685762 92.8179 0.0685762 96.041 0.0685762 99.2641 0.0685762 102.384 0.685762 105.436 1.88585 108.488 3.08593 111.231 4.9032 113.631 7.30337 116.031 9.70354 117.848 12.4809 119.048 15.6354 120.248 18.7899 120.866 21.9444 120.866 25.1675 120.866 28.3906 120.248 31.5451 119.048 34.6996 117.848 37.8198 116.031 40.5971 113.631 43.0316 111.231 45.466 109.413 48.1748 108.213 51.2264 107.013 54.2781 106.396 57.4326 106.396 60.6214 106.396 63.8102 107.013 67.0333 108.213 70.1535 109.413 73.308 111.231 76.051 113.631 78.4855 116.031 80.8857 117.848 83.6287 119.048 86.6804 120.248 89.732 120.866 92.8865 120.866 96.0753 120.866 99.2641 120.248 102.453 119.048 105.607 117.848 108.728 116.031 111.505 113.631 113.939 111.231 116.374 109.413 119.083 108.213 122.134 107.013 125.186 106.396 128.34 106.396 131.529 106.396 134.718 107.013 137.941 108.213 141.061 109.413 144.216 111.231 146.959 113.631 149.393 116.031 151.794 117.848 154.537 119.048 157.588 120.248 160.64 120.866 163.794 120.866 166.983 120.866 170.172 120.248 173.361 119.048 176.515 117.848 179.67 116.031 182.413 113.631 184.847 111.231 187.247 108.488 189.065 105.436 190.265 102.384 191.465 99.2298 192.082 96.041 192.082 92.8522 192.082 89.6291 191.465 86.5089 190.265 83.3544 189.065 80.6114 187.247 78.1769 184.847 75.7767 182.447 73.9595 179.67 72.7594 176.515 71.5593 173.361 70.9421 170.206 70.9421 166.983 70.9421 163.76 71.5593 160.64 72.7594 157.588 73.9595 154.537 75.7767 151.794 78.1769 149.393 80.5771 146.993 82.3943 144.216 83.5944 141.061 84.7945 137.941 85.4117 134.752 85.4117 131.529 85.4117 128.306 84.7945 125.186 83.5944 122.134 82.3943 119.083 80.5771 116.34 78.1769 113.939 75.7767 111.539 73.0337 109.722 69.982 108.522 66.9304 107.322 63.7759 106.705 60.5528 106.705 57.3297 106.705 54.1752 107.322 51.0207 108.522 47.8662 109.722 45.1232 111.539 42.6887 113.939 40.2885 116.34 38.4713 119.083 37.2712 122.134 36.0711 125.186 35.4539 128.34 35.4539 131.529 35.4539 134.718 36.0711 137.941 37.2712 141.061 38.4713 144.216 40.2885 146.959 42.6887 149.393 45.0889 151.794 46.9061 154.537 48.1062 157.588 49.3063 160.64 49.9235 163.794 49.9235 166.983 49.9235 170.172 49.3063 173.361 48.1062 176.515 46.9061 179.67 45.0889 182.413 42.6887 184.847 40.2885 187.282 37.5455 189.065 34.4938 190.265 31.4422 191.465 28.2877 192.082 25.0989 192.082ZM60.5528 85.6517C63.7759 85.6517 66.8961 85.0345 69.982 83.8344 73.0337 82.6344 75.7767 80.8171 78.1769 78.4169 80.5771 76.0168 82.3943 73.2394 83.5944 70.0849 84.7945 66.9647 85.4117 63.7759 85.4117 60.5528 85.4117 57.3297 84.7945 54.2095 83.5944 51.1579 82.3943 48.1062 80.5771 45.3632 78.1769 42.963 75.7767 40.5628 73.0337 38.7456 69.982 37.5455 66.9304 36.3454 63.7759 35.7282 60.5528 35.7282 57.3297 35.7282 54.1752 36.3454 51.0207 37.5455 47.8662 38.7456 45.1232 40.5628 42.6887 42.963 40.2885 45.3632 38.4713 48.1062 37.2712 51.1579 36.0711 54.2095 35.4539 57.364 35.4539 60.5528 35.4539 63.7416 36.0711 66.9647 37.2712 70.0849 38.4713 73.2394 40.2885 75.9825 42.6887 78.4169 45.0889 80.8171 47.8662 82.6344 51.0207 83.8344 54.1752 85.0345 57.3297 85.6517 60.5528 85.6517Z" fill="#000000" fill-rule="nonzero" fill-opacity="1" transform="matrix(1 0 0 1.00478 1744.93 1141)"/><path d="M166.983 192.082C163.76 192.082 160.571 191.465 157.451 190.265 154.297 189.065 151.553 187.247 149.119 184.847 146.685 182.447 144.902 179.67 143.702 176.515 142.501 173.361 141.884 170.206 141.884 166.983 141.884 163.76 142.501 160.64 143.702 157.588 144.902 154.537 146.719 151.794 149.119 149.393 151.519 146.993 153.336 144.216 154.537 141.061 155.737 137.941 156.354 134.752 156.354 131.529 156.354 128.306 155.737 125.186 154.537 122.134 153.336 119.083 151.519 116.34 149.119 113.939 146.719 111.539 144.902 108.762 143.702 105.607 142.501 102.453 141.884 99.2984 141.884 96.0753 141.884 92.8522 142.501 89.732 143.702 86.6804 144.902 83.6287 146.719 80.8857 149.119 78.4855 151.519 76.0853 153.336 73.308 154.537 70.1535 155.737 67.0333 156.354 63.8445 156.354 60.6214 156.354 57.3983 155.737 54.2781 154.537 51.2264 153.336 48.1748 151.519 45.4318 149.119 43.0316 146.719 40.6314 144.902 37.8541 143.702 34.6996 142.501 31.5451 141.884 28.3906 141.884 25.1675 141.884 21.9444 142.501 18.7899 143.702 15.6354 144.902 12.4809 146.719 9.73783 149.119 7.30337 151.519 4.9032 154.297 3.08593 157.451 1.88585 160.571 0.685762 163.76 0.0685762 166.983 0.0685762 170.206 0.0685762 173.326 0.685762 176.378 1.88585 179.43 3.08593 182.173 4.9032 184.573 7.30337 186.973 9.70354 189.75 11.5551 192.905 12.858 196.059 14.161 199.214 14.7782 202.437 14.7782 205.66 14.7782 208.78 14.1267 211.866 12.858 214.918 11.5894 217.661 9.73783 220.061 7.30337 222.461 4.9032 225.239 3.08593 228.393 1.88585 231.548 0.685762 234.702 0.0685762 237.925 0.0685762 241.148 0.0685762 244.269 0.685762 247.32 1.88585 250.372 3.08593 253.115 4.9032 255.515 7.30337 257.915 9.70354 259.732 12.4809 260.933 15.6354 262.133 18.7899 262.75 21.9444 262.75 25.1675 262.75 28.3906 262.133 31.5451 260.933 34.6996 259.732 37.8198 257.915 40.5971 255.515 43.0316 253.115 45.466 251.298 48.1748 250.098 51.2264 248.897 54.2781 248.28 57.4326 248.28 60.6214 248.28 63.8102 248.897 67.0333 250.098 70.1535 251.298 73.308 253.115 76.051 255.515 78.4855 257.915 80.8857 259.732 83.6287 260.933 86.6804 262.133 89.732 262.75 92.8865 262.75 96.0753 262.75 99.2641 262.133 102.453 260.933 105.607 259.732 108.728 257.915 111.505 255.515 113.939 253.115 116.374 251.298 119.083 250.098 122.134 248.897 125.186 248.28 128.34 248.28 131.529 248.28 134.718 248.897 137.941 250.098 141.061 251.298 144.216 253.115 146.959 255.515 149.393 257.915 151.794 259.732 154.537 260.933 157.588 262.133 160.64 262.75 163.794 262.75 166.983 262.75 170.172 262.133 173.361 260.933 176.515 259.732 179.67 257.915 182.413 255.515 184.847 253.115 187.247 250.372 189.065 247.32 190.265 244.269 191.465 241.114 192.082 237.925 192.082 234.736 192.082 231.513 191.465 228.393 190.265 225.239 189.065 222.496 187.247 220.061 184.847 217.661 182.447 215.844 179.67 214.644 176.515 213.444 173.361 212.826 170.206 212.826 166.983 212.826 163.76 213.444 160.64 214.644 157.588 215.844 154.537 217.661 151.794 220.061 149.393 222.461 146.993 224.279 144.216 225.479 141.061 226.679 137.941 227.296 134.752 227.296 131.529 227.296 128.306 226.679 125.186 225.479 122.134 224.279 119.083 222.461 116.34 220.061 113.939 217.661 111.539 215.844 108.762 214.644 105.607 213.444 102.453 212.826 99.2984 212.826 96.0753 212.826 92.8522 213.444 89.732 214.644 86.6804 215.844 83.6287 217.661 80.8857 220.061 78.4855 222.461 76.0853 224.279 73.308 225.479 70.1535 226.679 67.0333 227.296 63.8445 227.296 60.6214 227.296 57.3983 226.679 54.2781 225.479 51.2264 224.279 48.1748 222.461 45.4318 220.061 43.0316 217.661 40.6314 214.918 38.8141 211.866 37.6141 208.815 36.414 205.66 35.7968 202.437 35.7968 199.214 35.7968 196.059 36.414 192.905 37.6141 189.75 38.8141 187.007 40.6314 184.573 43.0316 182.173 45.4318 180.355 48.1748 179.155 51.2264 177.955 54.2781 177.338 57.4326 177.338 60.6214 177.338 63.8102 177.955 67.0333 179.155 70.1535 180.355 73.308 182.173 76.051 184.573 78.4855 186.973 80.8857 188.79 83.6287 189.99 86.6804 191.191 89.732 191.808 92.8865 191.808 96.0753 191.808 99.2641 191.191 102.453 189.99 105.607 188.79 108.728 186.973 111.505 184.573 113.939 182.173 116.34 180.355 119.083 179.155 122.134 177.955 125.186 177.338 128.34 177.338 131.529 177.338 134.718 177.955 137.941 179.155 141.061 180.355 144.216 182.173 146.959 184.573 149.393 186.973 151.794 188.79 154.537 189.99 157.588 191.191 160.64 191.808 163.794 191.808 166.983 191.808 170.172 191.191 173.361 189.99 176.515 188.79 179.67 186.973 182.413 184.573 184.847 182.173 187.282 179.43 189.065 176.378 190.265 173.326 191.465 170.172 192.082 166.983 192.082Z" fill="#000000" fill-rule="nonzero" fill-opacity="1" transform="matrix(1 0 0 1.00478 1744.93 1141)"/><path d="M308.867 192.082C305.644 192.082 302.455 191.465 299.335 190.265 296.181 189.065 293.438 187.247 291.003 184.847 288.603 182.447 286.786 179.67 285.586 176.515 284.386 173.361 283.768 170.206 283.768 166.983 283.768 163.76 284.386 160.64 285.586 157.588 286.786 154.537 288.603 151.794 291.003 149.393 293.403 146.993 295.221 144.216 296.421 141.061 297.621 137.941 298.238 134.752 298.238 131.529 298.238 128.306 297.621 125.186 296.421 122.134 295.221 119.083 293.403 116.34 291.003 113.939 288.603 111.539 286.786 108.762 285.586 105.607 284.386 102.453 283.768 99.2984 283.768 96.0753 283.768 92.8522 284.386 89.732 285.586 86.6804 286.786 83.6287 288.603 80.8857 291.003 78.4855 293.403 76.0853 295.221 73.308 296.421 70.1535 297.621 67.0333 298.238 63.8445 298.238 60.6214 298.238 57.3983 297.621 54.2781 296.421 51.2264 295.221 48.1748 293.403 45.4318 291.003 43.0316 288.603 40.6314 286.786 37.8541 285.586 34.6996 284.386 31.5451 283.768 28.3906 283.768 25.1675 283.768 21.9444 284.386 18.7899 285.586 15.6354 286.786 12.4809 288.603 9.73783 291.003 7.30337 293.403 4.9032 296.181 3.08593 299.335 1.88585 302.49 0.685762 305.644 0.0685762 308.867 0.0685762 312.09 0.0685762 315.211 0.685762 318.262 1.88585 321.314 3.08593 324.057 4.9032 326.457 7.30337 328.857 9.70354 330.675 12.4809 331.875 15.6354 333.075 18.7899 333.692 21.9444 333.692 25.1675 333.692 28.3906 333.075 31.5451 331.875 34.6996 330.675 37.8198 328.857 40.5971 326.457 43.0316 324.057 45.466 322.24 48.1748 321.04 51.2264 319.84 54.2781 319.222 57.4326 319.222 60.6214 319.222 63.8102 319.84 67.0333 321.04 70.1535 322.24 73.308 324.057 76.051 326.457 78.4855 328.857 80.8857 331.635 82.7029 334.789 83.903 337.944 85.1031 341.098 85.7203 344.321 85.7203 347.544 85.7203 350.665 85.1031 353.716 83.903 356.768 82.7029 359.511 80.8857 361.911 78.4855 364.311 76.0853 367.089 74.2338 370.243 72.9308 373.363 71.6279 376.552 71.0107 379.775 71.0107 382.998 71.0107 386.118 71.6622 389.17 72.9308 392.222 74.2338 394.965 76.051 397.365 78.4855 399.765 80.8857 401.582 83.6287 402.783 86.6804 403.983 89.732 404.6 92.8865 404.6 96.0753 404.6 99.2641 403.983 102.453 402.783 105.607 401.582 108.728 399.765 111.505 397.365 113.939 394.965 116.34 392.222 118.157 389.17 119.357 386.118 120.557 382.964 121.174 379.775 121.174 376.586 121.174 373.363 120.557 370.243 119.357 367.089 118.157 364.346 116.34 361.911 113.939 359.511 111.539 356.768 109.722 353.716 108.522 350.665 107.322 347.51 106.705 344.321 106.705 341.132 106.705 337.909 107.322 334.789 108.522 331.635 109.722 328.892 111.539 326.457 113.939 324.023 116.34 322.24 119.083 321.04 122.134 319.84 125.186 319.222 128.34 319.222 131.529 319.222 134.718 319.84 137.941 321.04 141.061 322.24 144.216 324.057 146.959 326.457 149.393 328.857 151.794 330.675 154.537 331.875 157.588 333.075 160.64 333.692 163.794 333.692 166.983 333.692 170.172 333.075 173.361 331.875 176.515 330.675 179.67 328.857 182.413 326.457 184.847 324.057 187.247 321.314 189.065 318.262 190.265 315.211 191.465 312.056 192.082 308.867 192.082Z" fill="#000000" fill-rule="nonzero" fill-opacity="1" transform="matrix(1 0 0 1.00478 1744.93 1141)"/><path d="M459.289 4.9032 468.101 4.9032 486.308 52.1865 477.428 52.1865 473.005 39.6714 454.146 39.6714 449.723 52.1865 441.185 52.1865 459.324 4.9032ZM456.375 33.3966 470.81 33.3966 463.713 13.0638 463.507 13.0638 456.341 33.3966Z" fill="#000000" fill-rule="nonzero" fill-opacity="1" transform="matrix(1 0 0 1.00478 1744.93 1141)"/><path d="M521.968 52.1865 514.802 52.1865 514.802 47.5576 514.665 47.5576C513.636 49.5463 512.162 50.9521 510.241 51.8436 508.287 52.7008 506.23 53.1466 504.07 53.1466 501.361 53.1466 499.029 52.6665 497.006 51.7065 494.983 50.7464 493.337 49.4778 492 47.8319 490.663 46.1861 489.669 44.266 489.017 42.0372 488.366 39.8085 488.023 37.4083 488.023 34.8367 488.023 31.7508 488.434 29.0763 489.291 26.8133 490.114 24.5503 491.246 22.6987 492.652 21.2586 494.057 19.8185 495.635 18.7213 497.418 18.0356 499.201 17.3498 501.018 17.0069 502.87 17.0069 503.932 17.0069 504.995 17.1098 506.127 17.3155 507.224 17.5212 508.287 17.8298 509.316 18.2756 510.344 18.7213 511.27 19.2699 512.127 19.9557 512.985 20.6414 513.705 21.4301 514.287 22.3901L514.425 22.3901 514.425 4.9032 521.968 4.9032 521.968 52.1865ZM495.635 35.4539C495.635 36.894 495.806 38.3341 496.183 39.7742 496.561 41.2143 497.143 42.4487 497.898 43.5459 498.652 44.6431 499.646 45.5346 500.847 46.1861 502.047 46.8376 503.452 47.1805 505.098 47.1805 506.744 47.1805 508.218 46.8376 509.453 46.1175 510.653 45.3975 511.647 44.4717 512.436 43.3402 513.19 42.2087 513.773 40.9057 514.15 39.4656 514.527 38.0255 514.699 36.5511 514.699 35.0767 514.699 31.2708 513.842 28.322 512.162 26.1961 510.447 24.0703 508.15 23.0073 505.235 23.0073 503.487 23.0073 501.978 23.3845 500.778 24.1045 499.578 24.8246 498.584 25.7847 497.795 26.9505 497.041 28.1163 496.458 29.4535 496.149 30.9279 495.806 32.4023 495.669 33.9109 495.669 35.4539Z" fill="#000000" fill-rule="nonzero" fill-opacity="1" transform="matrix(1 0 0 1.00478 1744.93 1141)"/><path d="M526.803 17.967 534.997 17.967 543.672 44.266 543.81 44.266 552.142 17.967 559.959 17.967 547.718 52.1865 539.249 52.1865 526.803 17.967Z" fill="#000000" fill-rule="nonzero" fill-opacity="1" transform="matrix(1 0 0 1.00478 1744.93 1141)"/><path d="M593.219 44.5746C593.219 45.5003 593.356 46.1518 593.596 46.5633 593.836 46.9747 594.316 47.1462 595.036 47.1462L595.825 47.1462C596.133 47.1462 596.476 47.1119 596.888 47.009L596.888 52.2551C596.613 52.358 596.27 52.4265 595.859 52.5637 595.447 52.6665 595.002 52.7694 594.556 52.8723 594.11 52.9751 593.664 53.0437 593.219 53.078 592.773 53.1123 592.396 53.1466 592.087 53.1466 590.544 53.1466 589.276 52.838 588.247 52.2208 587.218 51.6036 586.567 50.5064 586.258 48.9634 584.75 50.4035 582.898 51.4665 580.738 52.1522 578.543 52.8037 576.452 53.1466 574.429 53.1466 572.886 53.1466 571.411 52.9409 570.006 52.5294 568.6 52.1179 567.331 51.5008 566.268 50.6778 565.205 49.8549 564.314 48.8263 563.697 47.5576 563.045 46.289 562.737 44.8489 562.737 43.1687 562.737 41.0429 563.114 39.3285 563.902 37.9912 564.691 36.654 565.685 35.6254 566.954 34.871 568.223 34.1167 569.629 33.5681 571.206 33.2595 572.783 32.9509 574.36 32.6766 575.938 32.5051 577.309 32.2308 578.612 32.0594 579.846 31.9565 581.081 31.8537 582.178 31.6479 583.138 31.4079 584.098 31.1336 584.852 30.7222 585.401 30.1735 585.95 29.6249 586.224 28.802 586.224 27.7048 586.224 26.7447 585.984 25.9561 585.538 25.3046 585.058 24.6874 584.51 24.2074 583.824 23.8645 583.138 23.5216 582.384 23.3159 581.526 23.2131 580.704 23.1102 579.881 23.0416 579.126 23.0416 577 23.0416 575.252 23.4874 573.88 24.3789 572.509 25.2703 571.754 26.6419 571.549 28.4934L564.005 28.4934C564.142 26.299 564.657 24.4474 565.583 23.0073 566.508 21.5672 567.708 20.3671 569.114 19.5099 570.554 18.6184 572.166 18.0013 573.983 17.6584 575.8 17.3155 577.652 17.1441 579.538 17.1441 581.218 17.1441 582.864 17.3155 584.51 17.6584 586.155 18.0013 587.595 18.5842 588.898 19.3728 590.201 20.1614 591.264 21.1901 592.053 22.4587 592.842 23.7274 593.253 25.2361 593.253 27.0533L593.253 44.6774ZM585.675 35.0425C584.544 35.7968 583.104 36.2425 581.424 36.414 579.744 36.5854 578.063 36.7911 576.383 37.0997 575.595 37.2369 574.806 37.4083 574.052 37.6484 573.297 37.8884 572.646 38.2313 572.063 38.6427 571.48 39.0542 571.034 39.6028 570.691 40.2885 570.349 40.9743 570.177 41.7972 570.177 42.7573 570.177 43.5802 570.417 44.3002 570.897 44.8831 571.377 45.466 571.96 45.9118 572.646 46.2547 573.332 46.5976 574.086 46.8033 574.909 46.9404 575.732 47.0776 576.452 47.1462 577.138 47.1462 577.961 47.1462 578.886 47.0433 579.846 46.8033 580.806 46.5633 581.732 46.2204 582.589 45.6718 583.447 45.1575 584.167 44.4717 584.75 43.6488 585.332 42.8259 585.607 41.8315 585.607 40.6314L585.607 35.0082Z" fill="#000000" fill-rule="nonzero" fill-opacity="1" transform="matrix(1 0 0 1.00478 1744.93 1141)"/><path d="M601.379 17.967 608.545 17.967 608.545 23.0073 608.683 23.1445C609.814 21.2586 611.323 19.75 613.174 18.687 615.026 17.6241 617.083 17.0755 619.346 17.0755 623.084 17.0755 626.067 18.0356 628.227 19.99 630.387 21.9444 631.484 24.8589 631.484 28.7334L631.484 52.2551 623.941 52.2551 623.941 30.7222C623.838 28.0477 623.289 26.0933 622.227 24.8589 621.164 23.6588 619.518 23.0416 617.255 23.0416 615.986 23.0416 614.82 23.2816 613.826 23.7274 612.832 24.1731 611.94 24.8246 611.254 25.6475 610.569 26.4704 609.986 27.4305 609.608 28.5277 609.197 29.6249 609.026 30.7907 609.026 32.0251L609.026 52.2208 601.482 52.2208 601.482 17.967Z" fill="#000000" fill-rule="nonzero" fill-opacity="1" transform="matrix(1 0 0 1.00478 1744.93 1141)"/><path d="M662.481 29.4192C662.172 27.2933 661.315 25.7161 659.943 24.6189 658.538 23.5216 656.789 23.0073 654.663 23.0073 653.703 23.0073 652.64 23.1788 651.543 23.4874 650.446 23.8302 649.417 24.4474 648.491 25.3389 647.565 26.2304 646.777 27.4991 646.16 29.1106 645.542 30.7222 645.234 32.8137 645.234 35.4196 645.234 36.8254 645.405 38.2313 645.714 39.6714 646.057 41.0772 646.571 42.3458 647.291 43.443 648.011 44.5403 648.971 45.4318 650.103 46.1175 651.234 46.8033 652.64 47.1462 654.286 47.1462 656.48 47.1462 658.298 46.4604 659.738 45.0889 661.178 43.7174 662.069 41.7972 662.412 39.3285L669.956 39.3285C669.235 43.7859 667.555 47.2147 664.881 49.5463 662.206 51.9122 658.675 53.078 654.252 53.078 651.543 53.078 649.177 52.6323 647.12 51.7065 645.062 50.7807 643.348 49.5806 641.908 48.0034 640.502 46.4261 639.439 44.5746 638.685 42.4144 637.965 40.2542 637.588 37.9227 637.588 35.3853 637.588 32.848 637.93 30.4136 638.65 28.1848 639.371 25.9218 640.399 23.9674 641.839 22.3216 643.279 20.6757 644.994 19.3728 647.12 18.4127 649.246 17.4527 651.68 16.9726 654.492 16.9726 656.48 16.9726 658.366 17.2126 660.149 17.727 661.932 18.2413 663.509 18.9956 664.915 20.0243 666.321 21.0529 667.453 22.3216 668.344 23.8645 669.235 25.4075 669.75 27.2248 669.921 29.3506L662.378 29.3506Z" fill="#000000" fill-rule="nonzero" fill-opacity="1" transform="matrix(1 0 0 1.00478 1744.93 1141)"/><path d="M676.402 4.9032 683.945 4.9032 683.945 12.0694 676.402 12.0694 676.402 4.9032ZM676.402 17.967 683.945 17.967 683.945 52.1865 676.402 52.1865 676.402 17.967Z" fill="#000000" fill-rule="nonzero" fill-opacity="1" transform="matrix(1 0 0 1.00478 1744.93 1141)"/><path d="M692.14 17.967 699.306 17.967 699.306 23.0073 699.443 23.1445C700.575 21.2586 702.083 19.75 703.935 18.687 705.787 17.6241 707.844 17.0755 710.107 17.0755 713.844 17.0755 716.827 18.0356 718.988 19.99 721.148 21.9444 722.245 24.8589 722.245 28.7334L722.245 52.2551 714.702 52.2551 714.702 30.7222C714.599 28.0477 714.05 26.0933 712.987 24.8589 711.924 23.6588 710.278 23.0416 708.015 23.0416 706.747 23.0416 705.581 23.2816 704.587 23.7274 703.592 24.1731 702.701 24.8246 702.015 25.6475 701.329 26.4704 700.746 27.4305 700.369 28.5277 699.958 29.6249 699.786 30.7907 699.786 32.0251L699.786 52.2208 692.243 52.2208 692.243 17.967Z" fill="#000000" fill-rule="nonzero" fill-opacity="1" transform="matrix(1 0 0 1.00478 1744.93 1141)"/><path d="M761.813 50.4035C761.813 55.581 760.373 59.4213 757.493 61.9586 754.613 64.4959 750.43 65.7646 745.012 65.7646 743.298 65.7646 741.549 65.5932 739.8 65.2503 738.052 64.9074 736.474 64.2902 735.034 63.4673 733.594 62.6444 732.394 61.5129 731.434 60.1414 730.474 58.7698 729.891 57.0897 729.72 55.101L737.263 55.101C737.469 56.1639 737.846 57.0211 738.395 57.6726 738.909 58.3241 739.56 58.8384 740.28 59.2156 741 59.5927 741.823 59.8328 742.715 59.9356 743.606 60.0385 744.532 60.1071 745.492 60.1071 748.544 60.1071 750.773 59.3527 752.178 57.8441 753.584 56.3354 754.304 54.1752 754.304 51.3636L754.304 46.1175 754.167 46.1175C753.104 48.0034 751.664 49.4778 749.847 50.5407 747.995 51.6036 746.041 52.1179 743.915 52.1179 741.172 52.1179 738.84 51.6379 736.92 50.6778 735 49.7178 733.423 48.4148 732.154 46.769 730.886 45.1232 729.994 43.203 729.411 41.0429 728.828 38.8827 728.554 36.5511 728.554 34.0824 728.554 31.7851 728.897 29.5906 729.617 27.5334 730.337 25.4761 731.331 23.6245 732.668 22.0815 734.006 20.5043 735.617 19.2699 737.537 18.3441 739.458 17.4184 741.618 16.9383 744.052 16.9383 746.212 16.9383 748.201 17.3841 750.018 18.3099 751.836 19.2013 753.207 20.6414 754.201 22.5959L754.339 22.5959 754.339 17.8984 761.882 17.8984 761.882 50.335ZM745.047 46.2204C746.727 46.2204 748.132 45.8775 749.333 45.1917 750.533 44.506 751.458 43.6145 752.178 42.483 752.898 41.3515 753.447 40.0828 753.756 38.6427 754.099 37.2026 754.236 35.7625 754.236 34.3224 754.236 32.8823 754.064 31.4422 753.721 30.0707 753.379 28.6992 752.83 27.4991 752.11 26.4361 751.39 25.3732 750.43 24.5503 749.264 23.9331 748.098 23.3159 746.692 23.0073 745.047 23.0073 743.401 23.0073 741.961 23.3502 740.795 24.0703 739.629 24.7903 738.703 25.6818 738.017 26.8133 737.297 27.9448 736.817 29.2135 736.509 30.6536 736.2 32.0937 736.029 33.4995 736.029 34.9396 736.029 36.3797 736.2 37.7169 736.577 39.0885 736.92 40.4257 737.469 41.6258 738.189 42.6887 738.909 43.7516 739.835 44.6088 740.966 45.2603 742.098 45.9118 743.435 46.2547 745.047 46.2547Z" fill="#000000" fill-rule="nonzero" fill-opacity="1" transform="matrix(1 0 0 1.00478 1744.93 1141)"/><path d="M446.294 74.0623 455.038 74.0623 476.639 108.899 476.776 108.899 476.776 74.0623 484.663 74.0623 484.663 121.346 475.919 121.346 454.386 86.5775 454.18 86.5775 454.18 121.346 446.294 121.346 446.294 74.0623Z" fill="#000000" fill-rule="nonzero" fill-opacity="1" transform="matrix(1 0 0 1.00478 1744.93 1141)"/><path d="M499.269 106.19C499.269 107.528 499.441 108.796 499.818 110.031 500.195 111.265 500.744 112.362 501.498 113.288 502.252 114.214 503.212 114.968 504.344 115.517 505.475 116.065 506.847 116.34 508.458 116.34 510.653 116.34 512.436 115.86 513.773 114.899 515.11 113.939 516.139 112.534 516.791 110.613L523.957 110.613C523.545 112.465 522.86 114.111 521.899 115.585 520.939 117.06 519.774 118.26 518.402 119.254 517.031 120.248 515.488 121.003 513.807 121.517 512.093 122.031 510.344 122.271 508.493 122.271 505.784 122.271 503.418 121.826 501.327 120.934 499.235 120.043 497.486 118.808 496.046 117.231 494.606 115.654 493.543 113.734 492.789 111.539 492.069 109.345 491.692 106.91 491.692 104.27 491.692 101.836 492.069 99.5384 492.857 97.344 493.612 95.1495 494.743 93.2294 496.183 91.5836 497.623 89.9377 499.338 88.6005 501.395 87.6404 503.418 86.6804 505.715 86.2003 508.287 86.2003 510.962 86.2003 513.396 86.7489 515.522 87.8804 517.648 89.0119 519.431 90.4863 520.836 92.3379 522.242 94.1895 523.271 96.3153 523.922 98.7155 524.574 101.116 524.745 103.619 524.437 106.156L499.269 106.156ZM516.893 101.219C516.791 100.018 516.55 98.8869 516.139 97.7897 515.728 96.6925 515.145 95.7324 514.425 94.9095 513.705 94.0866 512.813 93.4351 511.784 92.9208 510.756 92.4065 509.59 92.1665 508.321 92.1665 507.053 92.1665 505.784 92.4065 504.721 92.8522 503.658 93.298 502.698 93.9494 501.944 94.7724 501.189 95.5953 500.538 96.5553 500.092 97.6526 499.612 98.7498 499.372 99.9499 499.338 101.219L516.962 101.219Z" fill="#000000" fill-rule="nonzero" fill-opacity="1" transform="matrix(1 0 0 1.00478 1744.93 1141)"/><path d="M560.234 121.346 552.827 121.346 552.827 116.58 552.69 116.58C551.764 118.294 550.393 119.666 548.541 120.728 546.69 121.791 544.838 122.271 542.952 122.271 538.461 122.271 535.203 121.14 533.18 118.911 531.157 116.682 530.163 113.322 530.163 108.83L530.163 87.1261 537.706 87.1261 537.706 108.11C537.706 111.128 538.289 113.219 539.421 114.454 540.552 115.688 542.164 116.305 544.255 116.305 545.833 116.305 547.17 116.065 548.233 115.585 549.296 115.105 550.153 114.454 550.804 113.631 551.456 112.808 551.936 111.848 552.244 110.682 552.519 109.551 552.656 108.282 552.656 106.979L552.656 87.1261 560.199 87.1261 560.199 121.346Z" fill="#000000" fill-rule="nonzero" fill-opacity="1" transform="matrix(1 0 0 1.00478 1744.93 1141)"/><path d="M568.188 87.0918 575.286 87.0918 575.286 93.7094 575.423 93.7094C575.629 92.7836 576.075 91.8922 576.726 91.0007 577.378 90.1092 578.132 89.3205 579.058 88.6005 579.984 87.8804 580.978 87.2975 582.075 86.8518 583.172 86.4061 584.304 86.2003 585.47 86.2003 586.361 86.2003 586.944 86.2003 587.287 86.2689 587.63 86.3032 587.973 86.3718 588.316 86.4061L588.316 93.6751C587.801 93.5723 587.253 93.5037 586.704 93.4351 586.155 93.3665 585.607 93.3323 585.092 93.3323 583.824 93.3323 582.624 93.5723 581.492 94.0866 580.361 94.6009 579.401 95.3553 578.543 96.3496 577.721 97.344 577.035 98.5783 576.555 100.018 576.075 101.459 575.835 103.139 575.835 105.059L575.835 121.346 568.291 121.346 568.291 87.1261Z" fill="#000000" fill-rule="nonzero" fill-opacity="1" transform="matrix(1 0 0 1.00478 1744.93 1141)"/><path d="M606.008 122.271C603.265 122.271 600.831 121.826 598.705 120.9 596.579 120.008 594.762 118.74 593.287 117.162 591.813 115.585 590.681 113.665 589.927 111.471 589.138 109.276 588.761 106.842 588.761 104.202 588.761 101.561 589.138 99.1955 589.927 97.0011 590.681 94.8066 591.813 92.8865 593.287 91.3093 594.762 89.732 596.579 88.4633 598.705 87.5719 600.831 86.6804 603.265 86.2003 606.008 86.2003 608.751 86.2003 611.186 86.6461 613.312 87.5719 615.437 88.4633 617.255 89.732 618.729 91.3093 620.203 92.8865 621.335 94.8066 622.124 97.0011 622.878 99.1955 623.289 101.63 623.289 104.202 623.289 106.773 622.912 109.276 622.124 111.471 621.335 113.665 620.238 115.585 618.729 117.162 617.255 118.74 615.437 120.008 613.312 120.9 611.186 121.791 608.717 122.271 606.008 122.271ZM606.008 116.305C607.688 116.305 609.128 115.962 610.363 115.242 611.597 114.522 612.626 113.597 613.414 112.465 614.203 111.334 614.786 110.031 615.163 108.59 615.54 107.15 615.712 105.676 615.712 104.202 615.712 102.727 615.506 101.287 615.163 99.847 614.786 98.4069 614.203 97.104 613.414 95.9724 612.626 94.8409 611.597 93.9152 610.363 93.2294 609.128 92.5436 607.654 92.1665 606.008 92.1665 604.362 92.1665 602.888 92.5093 601.654 93.2294 600.419 93.9494 599.391 94.8409 598.602 95.9724 597.813 97.104 597.23 98.3726 596.853 99.847 596.476 101.321 596.305 102.761 596.305 104.202 596.305 105.642 596.476 107.185 596.853 108.59 597.23 109.996 597.813 111.299 598.602 112.465 599.391 113.597 600.419 114.557 601.654 115.242 602.888 115.962 604.362 116.305 606.008 116.305Z" fill="#000000" fill-rule="nonzero" fill-opacity="1" transform="matrix(1 0 0 1.00478 1744.93 1141)"/><path d="M626.204 87.0918 631.827 87.0918 631.827 84.2459C631.827 82.0858 632.102 80.3371 632.616 78.9655 633.13 77.6283 633.85 76.5654 634.742 75.8453 635.633 75.1253 636.628 74.6452 637.759 74.4052 638.891 74.1652 640.056 74.028 641.291 74.028 643.725 74.028 645.474 74.1652 646.571 74.5081L646.571 80.4056C646.091 80.2685 645.577 80.1656 645.028 80.097 644.479 80.0285 643.828 79.9942 643.074 79.9942 642.045 79.9942 641.188 80.2342 640.468 80.7142 639.748 81.1943 639.371 82.1543 639.371 83.5601L639.371 87.0575 645.782 87.0575 645.782 92.6808 639.371 92.6808 639.371 121.277 631.827 121.277 631.827 92.6808 626.204 92.6808 626.204 87.0575Z" fill="#000000" fill-rule="nonzero" fill-opacity="1" transform="matrix(1 0 0 1.00478 1744.93 1141)"/><path d="M656.343 106.19C656.343 107.528 656.515 108.796 656.892 110.031 657.269 111.265 657.818 112.362 658.572 113.288 659.326 114.214 660.286 114.968 661.418 115.517 662.549 116.065 663.921 116.34 665.532 116.34 667.727 116.34 669.51 115.86 670.847 114.899 672.184 113.939 673.213 112.534 673.864 110.613L680.996 110.613C680.585 112.465 679.933 114.111 678.939 115.585 677.979 117.025 676.813 118.26 675.442 119.254 674.07 120.248 672.527 121.003 670.847 121.517 669.133 122.031 667.384 122.271 665.532 122.271 662.824 122.271 660.458 121.826 658.4 120.934 656.309 120.043 654.56 118.808 653.12 117.231 651.68 115.654 650.617 113.734 649.863 111.539 649.143 109.345 648.766 106.91 648.766 104.27 648.766 101.836 649.143 99.5384 649.931 97.344 650.72 95.1495 651.817 93.2294 653.257 91.5836 654.697 89.9377 656.412 88.6005 658.469 87.6404 660.492 86.6804 662.789 86.2003 665.361 86.2003 668.07 86.2003 670.47 86.7489 672.596 87.8804 674.722 89.0119 676.505 90.4863 677.91 92.3379 679.316 94.1895 680.345 96.3153 680.996 98.7155 681.648 101.116 681.819 103.619 681.511 106.156L656.343 106.156ZM673.933 101.219C673.83 100.018 673.59 98.8869 673.179 97.7897 672.767 96.6925 672.184 95.7324 671.464 94.9095 670.744 94.0866 669.853 93.4351 668.824 92.9208 667.795 92.4065 666.63 92.1665 665.361 92.1665 664.092 92.1665 662.824 92.4065 661.761 92.8522 660.698 93.298 659.738 93.9494 658.983 94.7724 658.195 95.5953 657.578 96.5553 657.132 97.6526 656.686 98.7498 656.412 99.9499 656.377 101.219L674.002 101.219Z" fill="#000000" fill-rule="nonzero" fill-opacity="1" transform="matrix(1 0 0 1.00478 1744.93 1141)"/><path d="M693.134 106.19C693.134 107.528 693.306 108.796 693.717 110.031 694.094 111.265 694.643 112.362 695.397 113.288 696.152 114.214 697.112 114.968 698.243 115.517 699.375 116.065 700.746 116.34 702.358 116.34 704.552 116.34 706.335 115.86 707.672 114.899 709.01 113.939 710.038 112.534 710.69 110.613L717.822 110.613C717.41 112.465 716.725 114.111 715.764 115.585 714.804 117.06 713.639 118.26 712.267 119.254 710.896 120.248 709.353 121.003 707.672 121.517 705.958 122.031 704.209 122.271 702.358 122.271 699.649 122.271 697.283 121.826 695.192 120.934 693.134 120.043 691.351 118.808 689.911 117.231 688.471 115.654 687.408 113.734 686.654 111.539 685.934 109.345 685.557 106.91 685.557 104.27 685.557 101.836 685.934 99.5384 686.722 97.344 687.511 95.1495 688.608 93.2294 690.048 91.5836 691.488 89.9377 693.203 88.6005 695.26 87.6404 697.283 86.6804 699.58 86.2003 702.152 86.2003 704.861 86.2003 707.261 86.7489 709.387 87.8804 711.513 89.0119 713.296 90.4863 714.702 92.3379 716.107 94.1895 717.136 96.3153 717.787 98.7155 718.439 101.116 718.61 103.619 718.302 106.156L693.134 106.156ZM710.758 101.219C710.656 100.018 710.416 98.8869 710.004 97.7897 709.593 96.6925 709.01 95.7324 708.29 94.9095 707.57 94.0866 706.678 93.4351 705.649 92.9208 704.621 92.4065 703.455 92.1665 702.186 92.1665 700.918 92.1665 699.649 92.4065 698.586 92.8522 697.523 93.298 696.563 93.9494 695.809 94.7724 695.02 95.5953 694.403 96.5553 693.957 97.6526 693.477 98.7498 693.237 99.9499 693.203 101.219L710.827 101.219Z" fill="#000000" fill-rule="nonzero" fill-opacity="1" transform="matrix(1 0 0 1.00478 1744.93 1141)"/><path d="M756.327 121.346 749.161 121.346 749.161 116.717 749.024 116.717C747.995 118.705 746.521 120.111 744.601 121.003 742.646 121.86 740.589 122.306 738.429 122.306 735.72 122.306 733.389 121.826 731.366 120.866 729.343 119.906 727.697 118.637 726.359 116.991 725.022 115.345 724.028 113.425 723.376 111.196 722.725 108.968 722.382 106.567 722.382 103.996 722.382 100.91 722.794 98.2355 723.651 95.9724 724.474 93.7094 725.605 91.8579 726.977 90.4178 728.382 88.9777 729.96 87.8804 731.743 87.1947 733.526 86.5089 735.343 86.166 737.195 86.166 738.257 86.166 739.32 86.2689 740.452 86.4746 741.549 86.6804 742.612 86.989 743.641 87.4347 744.669 87.8804 745.595 88.4291 746.452 89.1148 747.31 89.8006 748.03 90.5892 748.612 91.5493L748.75 91.5493 748.75 74.0623 756.293 74.0623 756.293 121.346ZM729.96 104.579C729.96 106.019 730.131 107.459 730.543 108.899 730.92 110.305 731.503 111.574 732.257 112.671 733.011 113.768 734.006 114.659 735.206 115.311 736.406 115.962 737.812 116.305 739.458 116.305 741.103 116.305 742.578 115.962 743.778 115.242 744.978 114.522 745.972 113.597 746.761 112.465 747.55 111.334 748.098 110.031 748.475 108.59 748.852 107.15 749.058 105.676 749.058 104.202 749.058 100.396 748.201 97.4468 746.521 95.321 744.807 93.1951 742.509 92.1322 739.595 92.1322 737.812 92.1322 736.337 92.5093 735.137 93.2294 733.937 93.9494 732.943 94.9095 732.154 96.0753 731.366 97.2411 730.817 98.5783 730.508 100.053 730.165 101.527 729.994 103.036 729.994 104.579Z" fill="#000000" fill-rule="nonzero" fill-opacity="1" transform="matrix(1 0 0 1.00478 1744.93 1141)"/><path d="M764.728 74.0623 772.271 74.0623 772.271 91.5493 772.408 91.5493C772.923 90.7264 773.574 89.972 774.329 89.2863 775.083 88.6348 775.906 88.0519 776.797 87.6061 777.689 87.1261 778.649 86.7832 779.643 86.5432 780.638 86.3032 781.632 86.166 782.592 86.166 785.301 86.166 787.632 86.6461 789.655 87.6061 791.678 88.5662 793.324 89.8692 794.661 91.515 795.999 93.1608 796.993 95.1152 797.645 97.3097 798.296 99.5041 798.639 101.87 798.639 104.407 798.639 106.705 798.33 108.933 797.747 111.094 797.164 113.254 796.239 115.174 795.039 116.82 793.839 118.465 792.296 119.803 790.444 120.797 788.592 121.791 786.398 122.271 783.895 122.271 782.763 122.271 781.598 122.203 780.432 122.031 779.266 121.894 778.135 121.586 777.072 121.14 776.009 120.694 775.049 120.111 774.191 119.426 773.334 118.705 772.614 117.78 772.031 116.648L771.894 116.648 771.894 121.346 764.762 121.346 764.762 74.0623ZM791.061 104.27C791.061 102.727 790.855 101.219 790.478 99.7784 790.101 98.3383 789.484 97.0354 788.695 95.9039 787.907 94.7724 786.912 93.8809 785.712 93.1951 784.512 92.5093 783.141 92.1665 781.598 92.1665 778.409 92.1665 776.043 93.2637 774.431 95.4924 772.82 97.6868 771.997 100.636 771.997 104.304 771.997 106.019 772.203 107.63 772.614 109.105 773.026 110.579 773.677 111.848 774.5 112.911 775.357 113.974 776.352 114.797 777.517 115.414 778.683 116.031 780.055 116.34 781.598 116.34 783.312 116.34 784.786 115.997 785.952 115.277 787.152 114.557 788.112 113.665 788.901 112.534 789.69 111.402 790.238 110.133 790.547 108.693 790.89 107.253 791.027 105.779 791.027 104.304Z" fill="#000000" fill-rule="nonzero" fill-opacity="1" transform="matrix(1 0 0 1.00478 1744.93 1141)"/><path d="M833.647 113.734C833.647 114.659 833.784 115.311 834.024 115.722 834.264 116.134 834.744 116.305 835.464 116.305L836.253 116.305C836.561 116.305 836.904 116.271 837.316 116.168L837.316 121.414C837.042 121.517 836.699 121.586 836.287 121.723 835.876 121.826 835.43 121.929 834.984 122.031 834.539 122.134 834.093 122.203 833.647 122.237 833.201 122.271 832.824 122.306 832.516 122.306 830.973 122.306 829.704 121.997 828.675 121.38 827.647 120.763 826.995 119.666 826.687 118.123 825.178 119.563 823.326 120.626 821.166 121.311 818.972 121.963 816.88 122.306 814.857 122.306 813.314 122.306 811.84 122.1 810.434 121.689 809.028 121.277 807.759 120.66 806.697 119.837 805.634 119.014 804.742 117.985 804.125 116.717 803.473 115.448 803.165 114.008 803.165 112.328 803.165 110.202 803.542 108.488 804.331 107.15 805.085 105.813 806.114 104.784 807.382 104.03 808.651 103.276 810.057 102.727 811.634 102.419 813.211 102.11 814.789 101.836 816.366 101.664 817.737 101.39 819.04 101.219 820.275 101.116 821.509 101.013 822.606 100.807 823.566 100.567 824.526 100.293 825.281 99.8813 825.829 99.3327 826.378 98.7841 826.652 97.9612 826.652 96.8639 826.652 95.9039 826.412 95.1152 825.966 94.4638 825.521 93.8466 824.938 93.3665 824.252 93.0237 823.566 92.6808 822.812 92.4751 821.955 92.3722 821.098 92.2693 820.309 92.2007 819.555 92.2007 817.429 92.2007 815.68 92.6465 814.309 93.538 812.937 94.4295 812.183 95.801 811.977 97.6526L804.434 97.6526C804.571 95.4581 805.085 93.6066 806.011 92.1665 806.937 90.7264 808.102 89.5263 809.542 88.6691 810.983 87.7776 812.594 87.1604 814.411 86.8175 816.229 86.4746 818.08 86.3032 819.966 86.3032 821.646 86.3032 823.292 86.4746 824.938 86.8175 826.584 87.1604 828.024 87.7433 829.327 88.5319 830.63 89.3205 831.693 90.3492 832.481 91.6179 833.27 92.8865 833.681 94.3952 833.681 96.2125L833.681 113.837ZM826.104 104.202C824.972 104.956 823.532 105.402 821.852 105.573 820.172 105.745 818.492 105.95 816.812 106.259 816.023 106.396 815.234 106.567 814.48 106.807 813.726 107.048 813.074 107.39 812.491 107.802 811.908 108.213 811.463 108.762 811.12 109.448 810.777 110.133 810.64 110.956 810.64 111.916 810.64 112.739 810.88 113.459 811.36 114.042 811.84 114.625 812.423 115.071 813.108 115.414 813.794 115.757 814.549 115.962 815.371 116.1 816.194 116.237 816.914 116.305 817.6 116.305 818.457 116.305 819.349 116.202 820.309 115.962 821.269 115.722 822.195 115.38 823.052 114.831 823.909 114.317 824.629 113.631 825.212 112.808 825.795 111.985 826.069 110.991 826.069 109.791L826.069 104.167Z" fill="#000000" fill-rule="nonzero" fill-opacity="1" transform="matrix(1 0 0 1.00478 1744.93 1141)"/><path d="M864.918 98.5783C864.609 96.4525 863.752 94.8752 862.38 93.778 860.975 92.6808 859.226 92.1665 857.1 92.1665 856.14 92.1665 855.077 92.3379 853.98 92.6465 852.883 92.9894 851.854 93.6066 850.928 94.4981 850.002 95.3895 849.214 96.6582 848.597 98.2697 847.979 99.8813 847.671 101.973 847.671 104.579 847.671 105.985 847.842 107.39 848.185 108.83 848.528 110.236 849.042 111.505 849.762 112.602 850.482 113.699 851.443 114.591 852.574 115.277 853.706 115.962 855.111 116.305 856.757 116.305 858.952 116.305 860.769 115.62 862.209 114.248 863.649 112.876 864.541 110.956 864.883 108.488L872.427 108.488C871.707 112.945 870.027 116.374 867.352 118.705 864.678 121.071 861.146 122.237 856.723 122.237 854.014 122.237 851.648 121.791 849.591 120.866 847.534 119.94 845.819 118.74 844.379 117.162 842.973 115.585 841.91 113.734 841.156 111.574 840.436 109.413 840.059 107.082 840.059 104.544 840.059 102.007 840.402 99.5727 841.122 97.344 841.842 95.0809 842.871 93.1265 844.311 91.4807 845.716 89.8349 847.465 88.5319 849.591 87.5719 851.683 86.6118 854.151 86.1318 856.963 86.1318 858.952 86.1318 860.837 86.3718 862.62 86.8861 864.403 87.4004 866.015 88.1547 867.387 89.1834 868.792 90.212 869.924 91.4807 870.815 93.0237 871.707 94.5666 872.221 96.3839 872.393 98.5098L864.849 98.5098Z" fill="#000000" fill-rule="nonzero" fill-opacity="1" transform="matrix(1 0 0 1.00478 1744.93 1141)"/><path d="M878.804 74.0623 886.348 74.0623 886.348 100.944 899.995 87.0918 909.252 87.0918 896.154 99.6756 910.521 121.311 901.332 121.311 890.874 104.682 886.382 109.036 886.382 121.277 878.839 121.277 878.839 73.9938Z" fill="#000000" fill-rule="nonzero" fill-opacity="1" transform="matrix(1 0 0 1.00478 1744.93 1141)"/><path d="M445.78 143.221 453.323 143.221 453.323 150.388 445.78 150.388 445.78 143.221ZM445.78 156.251 453.323 156.251 453.323 190.47 445.78 190.47 445.78 156.251Z" fill="#000000" fill-rule="nonzero" fill-opacity="1" transform="matrix(1 0 0 1.00478 1744.93 1141)"/><path d="M461.518 156.251 468.65 156.251 468.65 161.291 468.787 161.428C469.919 159.543 471.427 158.034 473.279 156.971 475.13 155.908 477.188 155.359 479.451 155.359 483.188 155.359 486.171 156.32 488.331 158.274 490.492 160.228 491.589 163.143 491.589 167.017L491.589 190.539 484.045 190.539 484.045 169.006C483.943 166.332 483.394 164.377 482.331 163.143 481.268 161.943 479.622 161.326 477.359 161.326 476.091 161.326 474.925 161.566 473.93 162.011 472.902 162.491 472.045 163.109 471.359 163.932 470.673 164.754 470.09 165.714 469.713 166.812 469.301 167.909 469.13 169.075 469.13 170.309L469.13 190.505 461.587 190.505 461.587 156.285Z" fill="#000000" fill-rule="nonzero" fill-opacity="1" transform="matrix(1 0 0 1.00478 1744.93 1141)"/><path d="M514.493 143.221 552.759 143.221 552.759 150.388 537.741 150.388 537.741 190.505 529.477 190.505 529.477 150.388 514.493 150.388 514.493 143.221Z" fill="#000000" fill-rule="nonzero" fill-opacity="1" transform="matrix(1 0 0 1.00478 1744.93 1141)"/><path d="M557.388 143.221 564.931 143.221 564.931 150.388 557.388 150.388 557.388 143.221ZM557.388 156.251 564.931 156.251 564.931 190.47 557.388 190.47 557.388 156.251Z" fill="#000000" fill-rule="nonzero" fill-opacity="1" transform="matrix(1 0 0 1.00478 1744.93 1141)"/><path d="M573.16 156.251 580.326 156.251 580.326 161.291 580.464 161.428C581.595 159.543 583.104 158.034 584.955 156.971 586.807 155.908 588.864 155.359 591.127 155.359 594.865 155.359 597.848 156.32 600.008 158.274 602.168 160.228 603.265 163.143 603.265 167.017L603.265 190.539 595.722 190.539 595.722 169.006C595.619 166.332 595.07 164.377 594.007 163.143 592.944 161.943 591.299 161.326 589.036 161.326 587.767 161.326 586.601 161.566 585.607 162.011 584.612 162.457 583.721 163.109 583.035 163.932 582.349 164.754 581.766 165.714 581.389 166.812 580.978 167.909 580.806 169.075 580.806 170.309L580.806 190.505 573.263 190.505 573.263 156.285Z" fill="#000000" fill-rule="nonzero" fill-opacity="1" transform="matrix(1 0 0 1.00478 1744.93 1141)"/><path d="M611.186 156.251 618.318 156.251 618.318 161.291 618.455 161.428C619.586 159.543 621.095 158.034 622.946 156.971 624.798 155.908 626.855 155.359 629.118 155.359 632.856 155.359 635.839 156.32 637.999 158.274 640.159 160.228 641.256 163.143 641.256 167.017L641.256 190.539 633.713 190.539 633.713 169.006C633.61 166.332 633.062 164.377 631.999 163.143 630.936 161.943 629.29 161.326 627.027 161.326 625.758 161.326 624.592 161.566 623.598 162.011 622.569 162.491 621.712 163.109 621.026 163.932 620.341 164.754 619.758 165.714 619.381 166.812 618.969 167.909 618.798 169.075 618.798 170.309L618.798 190.505 611.254 190.505 611.254 156.285Z" fill="#000000" fill-rule="nonzero" fill-opacity="1" transform="matrix(1 0 0 1.00478 1744.93 1141)"/><path d="M649.383 143.221 656.926 143.221 656.926 150.388 649.383 150.388 649.383 143.221ZM649.383 156.251 656.926 156.251 656.926 190.47 649.383 190.47 649.383 156.251Z" fill="#000000" fill-rule="nonzero" fill-opacity="1" transform="matrix(1 0 0 1.00478 1744.93 1141)"/><path d="M661.692 156.251 667.384 156.251 667.384 145.999 674.927 145.999 674.927 156.251 681.751 156.251 681.751 161.874 674.927 161.874 674.927 180.15C674.927 180.938 674.927 181.624 675.03 182.207 675.099 182.79 675.236 183.27 675.476 183.647 675.716 184.059 676.093 184.333 676.573 184.539 677.053 184.744 677.705 184.847 678.562 184.847 679.076 184.847 679.625 184.847 680.139 184.847 680.653 184.847 681.202 184.744 681.716 184.607L681.716 190.436C680.893 190.539 680.07 190.608 679.282 190.711 678.493 190.813 677.67 190.848 676.847 190.848 674.859 190.848 673.247 190.676 672.047 190.299 670.847 189.922 669.887 189.373 669.201 188.653 668.515 187.933 668.07 187.007 667.795 185.91 667.555 184.813 667.418 183.544 667.35 182.138L667.35 161.943 661.658 161.943 661.658 156.32Z" fill="#000000" fill-rule="nonzero" fill-opacity="1" transform="matrix(1 0 0 1.00478 1744.93 1141)"/><path d="M717.239 190.47 709.833 190.47 709.833 185.704 709.695 185.704C708.77 187.419 707.398 188.825 705.547 189.853 703.729 190.882 701.844 191.396 699.958 191.396 695.466 191.396 692.209 190.265 690.185 188.036 688.163 185.807 687.168 182.447 687.168 177.955L687.168 156.251 694.712 156.251 694.712 177.235C694.712 180.253 695.294 182.344 696.426 183.579 697.557 184.813 699.169 185.43 701.261 185.43 702.838 185.43 704.175 185.19 705.238 184.71 706.301 184.23 707.158 183.579 707.81 182.756 708.461 181.933 708.941 180.938 709.25 179.807 709.524 178.675 709.695 177.407 709.695 176.104L709.695 156.251 717.239 156.251 717.239 190.47Z" fill="#000000" fill-rule="nonzero" fill-opacity="1" transform="matrix(1 0 0 1.00478 1744.93 1141)"/><path d="M730.886 179.498C731.091 181.693 731.948 183.236 733.389 184.127 734.829 185.019 736.577 185.464 738.635 185.464 739.355 185.464 740.143 185.396 741.069 185.293 741.961 185.19 742.818 184.984 743.606 184.676 744.395 184.367 745.047 183.921 745.561 183.304 746.075 182.687 746.315 181.933 746.247 180.938 746.178 179.944 745.835 179.19 745.184 178.538 744.532 177.921 743.675 177.407 742.646 177.064 741.618 176.721 740.418 176.378 739.115 176.104 737.777 175.829 736.44 175.555 735.069 175.247 733.663 174.938 732.291 174.561 730.988 174.115 729.685 173.669 728.52 173.086 727.491 172.332 726.462 171.578 725.639 170.618 725.022 169.452 724.405 168.286 724.096 166.846 724.096 165.132 724.096 163.28 724.542 161.737 725.468 160.468 726.359 159.2 727.525 158.205 728.897 157.417 730.303 156.628 731.846 156.114 733.526 155.805 735.24 155.497 736.852 155.325 738.395 155.325 740.143 155.325 741.858 155.531 743.469 155.874 745.081 156.251 746.555 156.868 747.858 157.691 749.161 158.514 750.224 159.611 751.115 160.983 751.973 162.32 752.521 163.966 752.727 165.852L744.841 165.852C744.498 164.034 743.675 162.834 742.372 162.217 741.069 161.6 739.595 161.291 737.915 161.291 737.4 161.291 736.749 161.326 736.029 161.428 735.309 161.531 734.623 161.668 733.971 161.908 733.32 162.149 732.806 162.491 732.36 162.971 731.914 163.451 731.708 164.034 731.708 164.789 731.708 165.714 732.017 166.469 732.668 167.052 733.32 167.635 734.143 168.115 735.172 168.492 736.2 168.869 737.4 169.178 738.703 169.452 740.04 169.726 741.412 170 742.818 170.309 744.189 170.618 745.527 170.995 746.864 171.441 748.201 171.886 749.367 172.469 750.396 173.224 751.424 173.978 752.281 174.938 752.898 176.069 753.55 177.201 753.859 178.641 753.859 180.321 753.859 182.344 753.413 184.059 752.453 185.499 751.527 186.905 750.327 188.07 748.852 188.928 747.378 189.785 745.732 190.436 743.915 190.848 742.098 191.259 740.315 191.431 738.566 191.431 736.406 191.431 734.417 191.191 732.566 190.711 730.714 190.23 729.137 189.476 727.8 188.482 726.462 187.487 725.399 186.253 724.611 184.779 723.822 183.304 723.445 181.556 723.376 179.498L730.92 179.498Z" fill="#000000" fill-rule="nonzero" fill-opacity="1" transform="matrix(1 0 0 1.00478 1744.93 1141)"/></g></g></g><text fill="#000000" fill-opacity="1" font-family="Trade Gothic Next Light,Trade Gothic Next Light_MSFontService,sans-serif" font-style="normal" font-variant="normal" font-weight="700" font-stretch="normal" font-size="60" text-anchor="start" direction="ltr" writing-mode="lr-tb" unicode-bidi="normal" text-decoration="none" transform="matrix(1 0 0 1 2190.07 1186)">Adaptive</text><text fill="#000000" fill-opacity="1" font-family="Trade Gothic Next Light,Trade Gothic Next Light_MSFontService,sans-serif" font-style="normal" font-variant="normal" font-weight="700" font-stretch="normal" font-size="60" text-anchor="start" direction="ltr" writing-mode="lr-tb" unicode-bidi="normal" text-decoration="none" transform="matrix(1 0 0 1 2190.07 1258)">Neurofeedback</text><text fill="#000000" fill-opacity="1" font-family="Trade Gothic Next Light,Trade Gothic Next Light_MSFontService,sans-serif" font-style="normal" font-variant="normal" font-weight="700" font-stretch="normal" font-size="60" text-anchor="start" direction="ltr" writing-mode="lr-tb" unicode-bidi="normal" text-decoration="none" transform="matrix(1 0 0 1 2190.07 1329)">Toolbox</text></g></g></svg>